<?xml version="1.0"?>
<svg xmlns="http://www.w3.org/2000/svg" xmlns:xlink="http://www.w3.org/1999/xlink" version="1.1" id="Layer_1" x="0px" y="0px" viewBox="0 0 512 512" style="enable-background:new 0 0 512 512;" xml:space="preserve" width="512px" height="512px" class=""><g><path style="fill:#FFC36E;" d="M326.524,176.552c0.064-2.923,0.097-5.866,0.097-8.828C326.621,75.093,295.003,0,256,0  s-70.621,75.093-70.621,167.724c0,2.962,0.033,5.905,0.097,8.828H326.524z" data-original="#FFC36E" class=""/><g>
	<path style="fill:#000000" d="M344.276,459.034H167.724v-193.21c0-18.302,1.139-36.586,3.409-54.746l4.452-35.62   c0.552-4.417,4.308-7.733,8.759-7.733h143.31c4.452,0,8.207,3.315,8.759,7.733l4.452,35.62c2.27,18.161,3.409,36.445,3.409,54.746   v193.21H344.276z" data-original="#FFD782" class="active-path" data-old_color="#FFD782"/>
	<path style="fill:#000000" d="M335.448,512H176.552c-4.875,0-8.828-3.953-8.828-8.828l0,0c0-4.875,3.953-8.828,8.828-8.828   h158.897c4.875,0,8.828,3.953,8.828,8.828l0,0C344.276,508.047,340.323,512,335.448,512z" data-original="#FFD782" class="active-path" data-old_color="#FFD782"/>
</g><rect x="185.379" y="476.69" style="fill:#FFC36E;" width="141.241" height="17.655" data-original="#FFC36E" class=""/><g>
	<polygon style="fill:#F5B464;" points="256,459.034 167.724,459.034 185.379,476.69 256,476.69 326.621,476.69 344.276,459.034     " data-original="#F5B464" class=""/>
	<path style="fill:#F5B464;" d="M185.777,150.069c-0.256,5.805-0.397,11.69-0.397,17.655h141.241c0-5.965-0.141-11.85-0.397-17.655   H185.777z" data-original="#F5B464" class=""/>
</g></g> </svg>
