<svg height="512" viewBox="0 0 60 60" width="512" xmlns="http://www.w3.org/2000/svg"><g id="014---Bear-Trap" fill="none"><g id="Layer_3" transform="translate(1 1)"><path id="Shape" d="m46 51.9v4.1c-.0032948 1.1032019-.8967981 1.9967052-2 2h-42c-1.10320187-.0032948-1.9967052-.8967981-2-2v-9l4-12 3.05 9.15c.13488359.4103745.5180268.6877501.95.6877501s.81511641-.2773756.95-.6877501l3.05-9.15 3.05 9.15c.1348836.4103745.5180268.6877501.95.6877501s.8151164-.2773756.95-.6877501l3.05-9.15 3.05 9.15c.1348836.4103745.5180268.6877501.95.6877501s.8151164-.2773756.95-.6877501l3.05-9.15 3.77 11.32c.1411508.4046466.5214529.6768629.95.68h9.28c-.000485 2.3763431 1.6716687 4.4247314 4 4.9z" fill="#9e9e9e"/><path id="Shape" d="m52 47c0 2.7614237-2.2385763 5-5 5-.3359451.0024107-.6711847-.0311132-1-.1-2.4517813-.5011364-4.155486-2.7376742-3.98743-5.2344975.1680561-2.4968232 2.1561093-4.4848764 4.6529325-4.6529325 2.4968233-.168056 4.7333611 1.5356487 5.2344975 3.98743.0688868.3288153.1024107.6640549.1 1z" fill="#607d8b"/></g><g id="Layer_2" fill="#000" transform="translate(-1 -1)"><path id="Shape" d="m7 55h-1c-.55228475 0-1 .4477153-1 1s.44771525 1 1 1h1c.55228475 0 1-.4477153 1-1s-.44771525-1-1-1z"/><path id="Shape" d="m44 55h-33c-.5522847 0-1 .4477153-1 1s.4477153 1 1 1h33c.5522847 0 1-.4477153 1-1s-.4477153-1-1-1z"/><circle id="Oval" cx="49" cy="49" r="1"/></g></g></svg>
